<svg enable-background="new 0 0 512 512" height="512" viewBox="0 0 512 512" width="512" xmlns="http://www.w3.org/2000/svg"><path d="m131.624 277.421c20.446-20.447 19.235-54.808-15.946-89.989-32.469-32.469-75.743-40.015-99.144-41.596-9.362-.632-17.13 7.133-16.498 16.494 1.58 23.4 9.126 66.676 41.597 99.147 6.882 6.882 13.73 12.451 20.45 16.819 3.141 2.041 3.141 6.6 0 8.641-6.72 4.368-13.568 9.938-20.45 16.819-32.472 32.473-40.017 75.75-41.597 99.15-.632 9.36 7.135 17.123 16.495 16.491 23.4-1.58 66.676-9.126 99.147-41.597 35.181-35.181 36.392-69.542 15.946-89.989-2.874-2.873-2.874-7.517 0-10.39z" fill="#2ee2b2"/><path d="m131.623 287.811c-.685-.685-1.121-1.954-1.32-3.388h-28.104c11.168 52.494-18.338 100.887-52.654 90.083-21.314-6.711-23.254-40.371-11.359-67.15-29.554 32.003-36.626 72.991-38.15 95.539-.634 9.382 7.12 17.136 16.502 16.502 23.402-1.581 66.672-9.129 99.139-41.596 35.182-35.182 36.392-69.543 15.946-89.99z" fill="#1cd2a2"/><path d="m127.623 284.922c-1.964 0-3.924-.766-5.396-2.29l-69.592-72.069c-2.877-2.98-2.794-7.728.185-10.605 2.981-2.878 7.728-2.794 10.605.185l69.592 72.069c2.877 2.98 2.794 7.728-.185 10.605-1.456 1.405-3.333 2.105-5.209 2.105z" fill="#12cc9a"/><path d="m58.029 367.38c-1.875 0-3.753-.699-5.209-2.105-2.979-2.877-3.063-7.625-.185-10.605l69.592-72.069c2.876-2.978 7.625-3.062 10.605-.185 2.979 2.877 3.062 7.625.185 10.605l-69.592 72.069c-1.471 1.524-3.432 2.29-5.396 2.29z" fill="#12cc9a"/><path d="m427.168 165.407c-11.789-40.904-47.682-68.379-107.415-74.517-88.726-9.117-183.849 11.268-111.324 81.263z" fill="#2ee2b2"/><path d="m248.571 116.703c-3.782-1.692-8.218.001-9.91 3.782s.001 8.217 3.782 9.91c15.715 7.034 26.284 18.276 31.411 33.414 1.059 3.126 3.976 5.096 7.103 5.096.798 0 1.609-.128 2.407-.398 3.923-1.329 6.026-5.586 4.697-9.509-6.521-19.256-19.807-33.485-39.49-42.295zm114.294 45.702c-1.769-13.182-17.238-38.668-32.104-48.517-3.454-2.286-8.107-1.343-10.395 2.11s-1.344 8.107 2.109 10.395c10.608 7.028 24.267 28.652 25.522 38.006.506 3.767 3.726 6.504 7.424 6.504.332 0 .669-.022 1.007-.067 4.106-.551 6.987-4.325 6.437-8.431z" fill="#12cc9a"/><path d="m233.383 92.704c-47.829 8.835-72.657 33.41-24.954 79.45l57.859-1.785c-30.534-17.076-44.339-62.966-32.905-77.665z" fill="#1cd2a2"/><path d="m512 282.616c0 89.829-80.068 140.538-173.959 140.538-119.577 0-200.612-59.955-234.138-124.484-5.219-10.045-5.219-22.063 0-32.108 33.526-64.529 114.56-124.484 234.138-124.484 93.891 0 173.959 50.709 173.959 140.538z" fill="#3b8df2"/><g fill="#1273eb"><path d="m291.326 231.648c4.143 0 7.5-3.358 7.5-7.5s-3.357-7.5-7.5-7.5c-6.229 0-11.295-5.067-11.295-11.295s5.066-11.295 11.295-11.295c4.143 0 7.5-3.358 7.5-7.5s-3.357-7.5-7.5-7.5c-14.499 0-26.295 11.796-26.295 26.295 0 7.359 3.042 14.017 7.931 18.795-4.888 4.777-7.931 11.436-7.931 18.794 0 14.499 11.796 26.295 26.295 26.295 4.143 0 7.5-3.358 7.5-7.5s-3.357-7.5-7.5-7.5c-6.229 0-11.295-5.067-11.295-11.295 0-6.227 5.066-11.294 11.295-11.294z"/><path d="m224.606 269.237c4.142 0 7.5-3.358 7.5-7.5s-3.358-7.5-7.5-7.5c-6.228 0-11.295-5.067-11.295-11.295s5.067-11.294 11.295-11.294c4.142 0 7.5-3.358 7.5-7.5s-3.358-7.5-7.5-7.5c-14.499 0-26.295 11.795-26.295 26.294 0 7.359 3.042 14.018 7.931 18.795-4.888 4.777-7.931 11.436-7.931 18.795 0 14.499 11.796 26.295 26.295 26.295 4.142 0 7.5-3.358 7.5-7.5s-3.358-7.5-7.5-7.5c-6.228 0-11.295-5.067-11.295-11.295s5.067-11.295 11.295-11.295z"/><path d="m346.7 382.007c-14.499 0-26.295-11.796-26.295-26.295s11.796-26.295 26.295-26.295c4.143 0 7.5 3.358 7.5 7.5s-3.357 7.5-7.5 7.5c-6.228 0-11.295 5.067-11.295 11.295s5.066 11.295 11.295 11.295c4.143 0 7.5 3.358 7.5 7.5s-3.358 7.5-7.5 7.5z"/></g><path d="m214.461 166.949c-52.822 23.441-90.335 60.692-110.557 99.614-5.219 10.045-5.219 22.064 0 32.108 33.526 64.529 114.56 124.484 234.137 124.484 28.549 0 55.814-4.697 79.944-13.748-267.351-12.009-268.985-160.944-203.524-242.458z" fill="#2a83f0"/><path d="m214.454 361.773c18.47 18.47 43.25 24.033 62.505 4.777 38.127-38.127 40.703-81.491 27.456-94.738-13.248-13.247-56.612-10.671-94.738 27.456-19.256 19.255-13.693 44.035 4.777 62.505z" fill="#2ee2b2"/><path d="m248.948 304.544c-2.928-2.929-7.677-2.929-10.606 0l-37.455 37.455c1.883 4.6 4.545 9.086 7.872 13.341l40.19-40.189c2.928-2.929 2.928-7.678-.001-10.607zm22.735 22.735c-2.929-2.929-7.677-2.929-10.607 0l-40.189 40.189c4.255 3.327 8.741 5.989 13.341 7.872l37.456-37.455c2.928-2.929 2.928-7.678-.001-10.606z" fill="#12cc9a"/><ellipse cx="356.44" cy="279.4" fill="#f27281" rx="22.01" ry="17.529"/><ellipse cx="475.75" cy="279.4" fill="#f27281" rx="22.01" ry="17.529"/><path d="m379.742 267.823c-4.143 0-7.5-3.358-7.5-7.5 0-1.642-1.335-2.978-2.977-2.978s-2.977 1.336-2.977 2.978c0 4.142-3.357 7.5-7.5 7.5s-7.5-3.358-7.5-7.5c0-9.913 8.064-17.978 17.977-17.978 9.912 0 17.977 8.064 17.977 17.978 0 4.143-3.358 7.5-7.5 7.5z" fill="#464d59"/><path d="m473.396 267.823c-4.143 0-7.5-3.358-7.5-7.5 0-1.642-1.336-2.978-2.978-2.978s-2.977 1.336-2.977 2.978c0 4.142-3.357 7.5-7.5 7.5s-7.5-3.358-7.5-7.5c0-9.913 8.064-17.978 17.977-17.978s17.978 8.064 17.978 17.978c0 4.143-3.357 7.5-7.5 7.5z" fill="#464d59"/><path d="m416.092 285.132c-6.428 0-12.539-2.783-16.769-7.635-2.722-3.123-2.396-7.86.727-10.582 3.122-2.721 7.859-2.397 10.582.727 1.379 1.583 3.369 2.491 5.46 2.491 2.09 0 4.08-.908 5.459-2.491 2.722-3.122 7.457-3.447 10.582-.727 3.122 2.722 3.448 7.459.727 10.582-4.23 4.852-10.341 7.635-16.768 7.635z" fill="#464d59"/></svg>